<svg id="Layer_1" data-name="Layer 1" xmlns="http://www.w3.org/2000/svg" xmlns:xlink="http://www.w3.org/1999/xlink" viewBox="0 0 1920 862.53"><defs><style>.cls-1,.cls-4,.cls-6,.cls-8{fill:#f0f0f0;}.cls-2{fill:none;stroke:#f0f0f0;stroke-miterlimit:10;stroke-width:2px;stroke-dasharray:7 7;}.cls-3,.cls-4,.cls-6,.cls-8{font-size:15.85px;font-family:MyriadPro-Regular, Myriad Pro;}.cls-3{fill:#b8b8b8;}.cls-4{letter-spacing:0.01em;}.cls-5{letter-spacing:0em;}.cls-7{letter-spacing:-0.04em;}.cls-8{letter-spacing:-0.03em;}.cls-9{letter-spacing:-0.01em;}.cls-10{letter-spacing:-0.03em;}.cls-11{letter-spacing:0em;}.cls-12{letter-spacing:0em;}.cls-13{letter-spacing:0em;}.cls-14{fill:url(#linear-gradient);}.cls-15{fill:#4fc1e9;}</style><linearGradient id="linear-gradient" x1="1098.87" y1="507.98" x2="1703.91" y2="507.98" gradientUnits="userSpaceOnUse"><stop offset="0" stop-color="#3bafda"/><stop offset="1" stop-color="#4fc1e9"/></linearGradient></defs><title>Untitled-1</title><path class="cls-1" d="M986,442v1.59h791.55V442Z"/><path class="cls-1" d="M986,530.28v1.58h791.55v-1.58ZM986,442v1.59h791.55V442Z"/><path class="cls-1" d="M986,530.28v1.58h791.55v-1.58Zm0,88.27v1.58h791.55v-1.58Z"/><path class="cls-1" d="M986,706.81v1.59h791.55v-1.59Zm0-88.26v1.58h791.55v-1.58Z"/><path class="cls-1" d="M986,706.81v1.59h791.55v-1.59Z"/><path class="cls-1" d="M986,442.33v1.58h791.55v-1.58Zm0-88.27v1.59h791.55v-1.59Z"/><path class="cls-2" d="M1099.5,560.23s96.5-170,201.88,58.16c0,0,18.22,82.4,224.23,41.2,0,0,69.73-31.69,82.41-88.74s50.71-98.25,74.48-10.3,33.28,129.15,49.91,97.46,11.1-77.65,45.17-72.9"/><line class="cls-2" x1="1099.73" y1="706.74" x2="1099.73" y2="560.15"/><line class="cls-2" x1="1212.24" y1="706.74" x2="1212.64" y2="508.25"/><line class="cls-2" x1="1325.55" y1="706.74" x2="1325.94" y2="650.88"/><line class="cls-2" x1="1438.85" y1="706.74" x2="1438.85" y2="673.06"/><line class="cls-2" x1="1552.16" y1="706.74" x2="1552.16" y2="643.74"/><line class="cls-2" x1="1664.67" y1="706.74" x2="1664.67" y2="519.74"/><line class="cls-2" x1="1775.5" y1="699.5" x2="1775.5" y2="545.5"/><text class="cls-3" transform="translate(986.37 702.65)">0</text><text class="cls-3" transform="translate(986.37 615.49)">5 000</text><text class="cls-3" transform="translate(986.37 525.17)">10 000</text><text class="cls-3" transform="translate(986.37 437.21)">15 000</text><text class="cls-3" transform="translate(986.37 349.26)">20 000</text><text class="cls-4" transform="translate(1083.83 730.38)">M<tspan class="cls-5" x="12.84" y="0">on</tspan></text><text class="cls-6" transform="translate(1200.31 729.59)"><tspan class="cls-7">T</tspan><tspan x="7.16" y="0">ue</tspan></text><text class="cls-8" transform="translate(1310.44 729.59)">W<tspan class="cls-5" x="12.88" y="0">ed</tspan></text><text class="cls-6" transform="translate(1422.96 730.38)"><tspan class="cls-9">T</tspan><tspan x="7.76" y="0">hu</tspan></text><text class="cls-6" transform="translate(1535.47 730.38)"><tspan class="cls-10">F</tspan><tspan class="cls-11" x="7.31" y="0">r</tspan><tspan x="12.55" y="0">i</tspan></text><text class="cls-6" transform="translate(1647.19 729.59)"><tspan class="cls-12">S</tspan><tspan class="cls-13" x="7.86" y="0">a</tspan><tspan x="15.43" y="0">t</tspan></text><text class="cls-6" transform="translate(1762.08 729.59)">Sun</text><path class="cls-14" d="M1394.2,632.1c-20.51,0-43.2-11.28-69.07-34.26-42-37.32-84.38-54.16-126-50-60.67,6-98.66,55.4-99,55.9l-1.26-1c.09-.13,9.73-12.77,26.8-26,15.76-12.19,41.28-27.39,73.34-30.56,42-4.16,84.82,12.81,127.17,50.44,29.11,25.86,54,36.72,76.26,33.21,33.93-5.37,56.64-44.08,78.6-81.52,21.18-36.1,41.18-70.2,70.59-77.28,43-10.34,72.57-35.34,96.36-55.42,20-16.87,37.22-31.43,55.88-31.8l0,1.59c-18.11.35-34.34,14.06-54.9,31.42-23.91,20.19-53.68,45.33-97,55.75-28.76,6.92-48.59,40.74-69.59,76.54-22.15,37.76-45.05,76.8-79.72,82.28A53.23,53.23,0,0,1,1394.2,632.1Z"/><path class="cls-15" d="M1707.46,388.61a4.36,4.36,0,1,1,4.35-4.36A4.36,4.36,0,0,1,1707.46,388.61Zm0-7.13a2.77,2.77,0,1,0,2.77,2.77A2.78,2.78,0,0,0,1707.46,381.48Z"/></svg>